<?xml version="1.0" standalone="no"?>
<!DOCTYPE svg PUBLIC "-//W3C//DTD SVG 20010904//EN"
 "http://www.w3.org/TR/2001/REC-SVG-20010904/DTD/svg10.dtd">
<svg version="1.0" xmlns="http://www.w3.org/2000/svg"
 width="487.000000pt" height="489.000000pt" viewBox="0 0 487.000000 489.000000"
 preserveAspectRatio="xMidYMid meet">

<g transform="translate(0.000000,489.000000) scale(0.100000,-0.100000)"
fill="#000000" stroke="none">
<path d="M2095 4814 c-417 -56 -811 -219 -1150 -473 -129 -98 -306 -269 -408
-396 -289 -359 -478 -809 -526 -1257 -14 -125 -14 -401 0 -526 36 -338 165
-713 344 -1002 390 -629 1053 -1047 1790 -1130 114 -13 454 -8 591 8 234 28
596 138 716 217 21 14 50 30 64 35 39 15 300 190 389 260 500 398 830 1001
896 1639 7 69 10 190 6 310 -6 224 -29 377 -84 566 -20 66 -40 138 -45 160 -6
22 -17 52 -24 67 -8 14 -14 33 -14 41 0 9 -6 22 -12 29 -18 18 -68 125 -68
143 0 8 -5 15 -11 15 -6 0 -9 9 -6 20 3 11 0 20 -6 20 -7 0 -39 46 -72 101
-128 214 -317 435 -515 601 -98 83 -308 228 -328 228 -7 0 -12 5 -12 10 0 6
-6 10 -14 10 -8 0 -35 16 -60 35 -110 84 -387 189 -633 240 -222 46 -589 59
-808 29z m685 -98 c164 -31 298 -70 450 -131 203 -81 445 -219 603 -343 l58
-46 -112 -105 c-62 -58 -115 -107 -120 -109 -4 -2 -44 24 -88 57 -273 202
-643 360 -908 387 l-63 7 0 -292 0 -291 -190 0 -190 0 0 285 0 285 -47 0 c-78
0 -231 -29 -328 -61 -171 -57 -419 -189 -597 -319 l-67 -49 -121 100 c-66 56
-118 105 -115 109 3 5 52 43 108 84 340 247 694 396 1077 451 155 23 482 14
650 -19z m-1257 -960 c206 -62 391 -193 558 -394 118 -143 183 -283 195 -422
l5 -65 -128 -73 -128 -72 -6 27 c-38 164 -55 219 -88 288 -133 276 -366 421
-711 442 -114 6 -186 -9 -305 -67 -366 -178 -532 -649 -455 -1292 18 -143 86
-380 147 -507 66 -137 165 -302 234 -391 87 -112 120 -150 129 -150 4 0 237
334 516 743 279 408 522 761 538 785 l30 42 370 0 371 -1 535 -779 c294 -429
537 -780 541 -780 14 0 121 136 200 254 86 127 180 310 229 445 107 293 141
610 92 856 -49 247 -156 503 -255 611 -90 99 -260 201 -383 230 -97 23 -262
14 -365 -19 -114 -36 -231 -109 -324 -202 -118 -119 -182 -239 -214 -402 l-16
-83 -142 0 -143 0 0 29 c0 41 26 163 52 241 129 394 412 634 818 696 137 20
344 18 457 -5 172 -36 320 -113 448 -233 182 -171 293 -397 345 -703 30 -178
46 -478 32 -615 -50 -484 -259 -919 -640 -1335 -95 -105 -201 -205 -215 -205
-9 0 -148 191 -677 930 -293 410 -539 753 -548 763 -13 15 -36 17 -201 17
l-187 0 -584 -831 c-322 -456 -596 -844 -611 -862 l-26 -31 -70 57 c-207 169
-426 451 -561 722 -127 255 -198 500 -233 805 -19 166 -6 475 25 627 52 244
141 434 271 572 128 137 275 234 455 304 175 66 179 67 365 63 149 -3 181 -6
258 -30z m996 -131 c127 -66 137 -274 18 -369 -35 -28 -45 -31 -112 -31 -67 0
-77 3 -112 31 -102 81 -113 257 -20 342 54 51 158 63 226 27z m11 -1450 c0
-21 -5 -25 -27 -25 l-28 -1 28 -15 c15 -8 27 -20 27 -26 0 -7 15 -9 46 -4 45
6 45 5 42 -21 -2 -22 -10 -29 -38 -35 -19 -4 -53 -16 -75 -28 -21 -11 -50 -20
-62 -20 -24 0 -63 32 -63 51 0 6 -14 9 -32 7 -29 -3 -34 -8 -42 -40 -8 -30
-14 -38 -33 -38 -18 0 -23 5 -23 26 0 49 28 91 66 99 19 3 53 14 77 25 38 17
40 19 15 19 -23 1 -28 6 -28 26 0 24 2 25 75 25 73 0 75 -1 75 -25z m191 -92
c30 -33 932 -1348 936 -1363 5 -20 -12 -44 -25 -36 -14 8 -955 1364 -965 1390
-4 11 -5 26 -3 33 7 16 32 6 57 -24z m-400 -179 c3 -27 2 -57 -3 -66 -10 -21
-13 -173 -3 -189 15 -23 13 -203 -2 -233 -13 -25 -13 -33 2 -66 16 -35 16 -39
0 -70 -12 -23 -14 -35 -6 -43 14 -14 14 -54 1 -62 -18 -11 -10 -22 25 -33 30
-8 65 -9 144 0 3 0 45 0 93 -1 78 -1 90 -4 117 -27 22 -18 43 -26 69 -26 20 1
63 -8 95 -19 31 -10 68 -19 81 -19 13 0 34 -8 46 -18 21 -17 21 -20 8 -52 -8
-19 -18 -51 -22 -71 -10 -56 -26 -63 -67 -30 -19 15 -49 31 -68 34 -42 9 -138
-8 -211 -36 -47 -19 -74 -22 -190 -21 -118 1 -149 5 -247 32 -139 39 -223 70
-223 83 0 6 -4 8 -9 4 -6 -3 -8 10 -6 32 4 31 3 34 -4 13 -9 -24 -9 -24 -10
-3 -2 41 74 58 184 41 78 -12 325 -17 297 -6 -9 3 -31 7 -48 7 -36 1 -73 24
-56 35 17 10 15 26 -3 26 -8 0 -19 9 -25 19 -13 26 -13 34 3 26 6 -4 3 1 -7 9
-11 9 -26 16 -34 16 -8 0 -12 6 -9 14 3 8 -1 17 -10 20 -12 5 -13 9 -3 21 11
14 7 19 -12 16 -7 -1 -5 13 8 73 5 22 8 25 16 15 7 -11 8 -9 4 6 -14 62 -16
204 -3 262 9 37 13 90 10 132 -4 66 -3 71 22 87 25 16 25 18 8 36 -16 18 -16
21 2 54 10 19 23 33 29 31 6 -2 14 -26 17 -53z m-311 -102 c0 -21 -95 -165
-356 -543 -195 -283 -361 -514 -367 -514 -7 0 -13 10 -15 22 -4 25 25 68 431
666 272 399 307 441 307 369z m-709 -1096 c21 -45 -14 -136 -51 -136 -19 0
-50 40 -50 65 0 27 54 95 76 95 8 0 19 -11 25 -24z m2399 -75 c15 -28 13 -39
-11 -51 -38 -21 -65 22 -33 54 20 21 31 20 44 -3z m-76 -89 c22 -36 -272 -182
-514 -255 -280 -85 -403 -101 -760 -102 -336 0 -360 3 -600 86 -189 65 -331
128 -404 179 -90 62 -35 70 82 11 104 -52 285 -123 408 -159 307 -92 650 -97
1038 -16 153 32 651 215 690 254 12 12 53 13 60 2z"/>
<path d="M2458 1033 c7 -3 16 -2 19 1 4 3 -2 6 -13 5 -11 0 -14 -3 -6 -6z"/>
</g>
</svg>
